<?xml version="1.0" encoding="UTF-8" standalone="no"?>
<!DOCTYPE svg PUBLIC "-//W3C//DTD SVG 1.1//EN"
 "http://www.w3.org/Graphics/SVG/1.1/DTD/svg11.dtd">
<!-- Generated by graphviz version 2.36.0 (20140111.2315)
 -->
<!-- Title: G Pages: 1 -->
<svg width="335pt" height="186pt"
 viewBox="0.00 0.00 335.20 186.20" xmlns="http://www.w3.org/2000/svg" xmlns:xlink="http://www.w3.org/1999/xlink">
<g id="graph0" class="graph" transform="scale(1 1) rotate(0) translate(21.6 164.6)">
<title>G</title>
<polygon fill="#111111" stroke="none" points="-21.6,21.6 -21.6,-164.6 313.6,-164.6 313.6,21.6 -21.6,21.6"/>
<!-- browser.ts -->
<g id="node1" class="node"><title>browser.ts</title>
<path fill="none" stroke="#cfffac" d="M178.833,-143.5C178.833,-143.5 113.167,-143.5 113.167,-143.5 109.333,-143.5 105.5,-139.667 105.5,-135.833 105.5,-135.833 105.5,-128.167 105.5,-128.167 105.5,-124.333 109.333,-120.5 113.167,-120.5 113.167,-120.5 178.833,-120.5 178.833,-120.5 182.667,-120.5 186.5,-124.333 186.5,-128.167 186.5,-128.167 186.5,-135.833 186.5,-135.833 186.5,-139.667 182.667,-143.5 178.833,-143.5"/>
<text text-anchor="middle" x="146" y="-128.3" font-family="Arial" font-size="14.00" fill="#cfffac">browser.ts</text>
</g>
<!-- evoke.ts -->
<g id="node2" class="node"><title>evoke.ts</title>
<path fill="none" stroke="#c6c5fe" d="M172.833,-102.5C172.833,-102.5 119.167,-102.5 119.167,-102.5 115.333,-102.5 111.5,-98.6667 111.5,-94.8333 111.5,-94.8333 111.5,-87.1667 111.5,-87.1667 111.5,-83.3333 115.333,-79.5 119.167,-79.5 119.167,-79.5 172.833,-79.5 172.833,-79.5 176.667,-79.5 180.5,-83.3333 180.5,-87.1667 180.5,-87.1667 180.5,-94.8333 180.5,-94.8333 180.5,-98.6667 176.667,-102.5 172.833,-102.5"/>
<text text-anchor="middle" x="146" y="-87.3" font-family="Arial" font-size="14.00" fill="#c6c5fe">evoke.ts</text>
</g>
<!-- types.ts -->
<g id="node3" class="node"><title>types.ts</title>
<path fill="none" stroke="#cfffac" d="M283.833,-62.5C283.833,-62.5 234.167,-62.5 234.167,-62.5 230.333,-62.5 226.5,-58.6667 226.5,-54.8333 226.5,-54.8333 226.5,-47.1667 226.5,-47.1667 226.5,-43.3333 230.333,-39.5 234.167,-39.5 234.167,-39.5 283.833,-39.5 283.833,-39.5 287.667,-39.5 291.5,-43.3333 291.5,-47.1667 291.5,-47.1667 291.5,-54.8333 291.5,-54.8333 291.5,-58.6667 287.667,-62.5 283.833,-62.5"/>
<text text-anchor="middle" x="259" y="-47.3" font-family="Arial" font-size="14.00" fill="#cfffac">types.ts</text>
</g>
<!-- evoke.ts&#45;&gt;types.ts -->
<g id="edge1" class="edge"><title>evoke.ts&#45;&gt;types.ts</title>
<path fill="none" stroke="#757575" d="M178.511,-79.6446C190.463,-75.3377 204.252,-70.3685 216.956,-65.7907"/>
<polygon fill="#757575" stroke="#757575" points="218.189,-69.0668 226.41,-62.3838 215.816,-62.4813 218.189,-69.0668"/>
</g>
<!-- generate.ts -->
<g id="node4" class="node"><title>generate.ts</title>
<path fill="none" stroke="#c6c5fe" d="M181.833,-22.5C181.833,-22.5 110.167,-22.5 110.167,-22.5 106.333,-22.5 102.5,-18.6667 102.5,-14.8333 102.5,-14.8333 102.5,-7.16667 102.5,-7.16667 102.5,-3.33333 106.333,0.5 110.167,0.5 110.167,0.5 181.833,0.5 181.833,0.5 185.667,0.5 189.5,-3.33333 189.5,-7.16667 189.5,-7.16667 189.5,-14.8333 189.5,-14.8333 189.5,-18.6667 185.667,-22.5 181.833,-22.5"/>
<text text-anchor="middle" x="146" y="-7.3" font-family="Arial" font-size="14.00" fill="#c6c5fe">generate.ts</text>
</g>
<!-- generate.ts&#45;&gt;types.ts -->
<g id="edge2" class="edge"><title>generate.ts&#45;&gt;types.ts</title>
<path fill="none" stroke="#757575" d="M178.511,-22.3554C190.463,-26.6623 204.252,-31.6315 216.956,-36.2093"/>
<polygon fill="#757575" stroke="#757575" points="215.816,-39.5187 226.41,-39.6162 218.189,-32.9332 215.816,-39.5187"/>
</g>
<!-- index.ts -->
<g id="node5" class="node"><title>index.ts</title>
<path fill="none" stroke="#c6c5fe" d="M57.8333,-82.5C57.8333,-82.5 8.16667,-82.5 8.16667,-82.5 4.33333,-82.5 0.5,-78.6667 0.5,-74.8333 0.5,-74.8333 0.5,-67.1667 0.5,-67.1667 0.5,-63.3333 4.33333,-59.5 8.16667,-59.5 8.16667,-59.5 57.8333,-59.5 57.8333,-59.5 61.6667,-59.5 65.5,-63.3333 65.5,-67.1667 65.5,-67.1667 65.5,-74.8333 65.5,-74.8333 65.5,-78.6667 61.6667,-82.5 57.8333,-82.5"/>
<text text-anchor="middle" x="33" y="-67.3" font-family="Arial" font-size="14.00" fill="#c6c5fe">index.ts</text>
</g>
<!-- index.ts&#45;&gt;browser.ts -->
<g id="edge3" class="edge"><title>index.ts&#45;&gt;browser.ts</title>
<path fill="none" stroke="#757575" d="M52.2516,-82.2557C65.8188,-90.4947 84.867,-101.795 102,-111 105.094,-112.663 108.34,-114.349 111.601,-116.005"/>
<polygon fill="#757575" stroke="#757575" points="110.215,-119.225 120.726,-120.552 113.337,-112.96 110.215,-119.225"/>
</g>
<!-- index.ts&#45;&gt;evoke.ts -->
<g id="edge4" class="edge"><title>index.ts&#45;&gt;evoke.ts</title>
<path fill="none" stroke="#757575" d="M65.5112,-76.6777C76.7278,-78.6987 89.5631,-81.0114 101.6,-83.1802"/>
<polygon fill="#757575" stroke="#757575" points="101.008,-86.6299 111.47,-84.9586 102.25,-79.7408 101.008,-86.6299"/>
</g>
<!-- index.ts&#45;&gt;types.ts -->
<g id="edge6" class="edge"><title>index.ts&#45;&gt;types.ts</title>
<path fill="none" stroke="#757575" d="M65.6186,-68.1769C105.03,-64.658 172.507,-58.6333 216.166,-54.7352"/>
<polygon fill="#757575" stroke="#757575" points="216.531,-58.2166 226.18,-53.841 215.909,-51.2443 216.531,-58.2166"/>
</g>
<!-- index.ts&#45;&gt;generate.ts -->
<g id="edge5" class="edge"><title>index.ts&#45;&gt;generate.ts</title>
<path fill="none" stroke="#757575" d="M54.8783,-59.7145C71.8246,-50.5542 95.9413,-37.5182 114.963,-27.2362"/>
<polygon fill="#757575" stroke="#757575" points="116.705,-30.2731 123.838,-22.4389 113.377,-24.1152 116.705,-30.2731"/>
</g>
</g>
</svg>
