<?xml version="1.0" encoding="UTF-8" standalone="no"?>
<!DOCTYPE svg PUBLIC "-//W3C//DTD SVG 1.1//EN"
 "http://www.w3.org/Graphics/SVG/1.1/DTD/svg11.dtd">
<!-- Generated by graphviz version 2.40.1 (20161225.0304)
 -->
<!-- Title: %0 Pages: 1 -->
<svg width="93pt" height="54pt"
 viewBox="0.00 0.00 93.17 54.40" xmlns="http://www.w3.org/2000/svg" xmlns:xlink="http://www.w3.org/1999/xlink">
<g id="graph0" class="graph" transform="scale(1 1) rotate(0) translate(4 50.4)">
<title>%0</title>
<polygon fill="#ffffff" stroke="transparent" points="-4,4 -4,-50.4 89.1681,-50.4 89.1681,4 -4,4"/>
<text text-anchor="middle" x="42.584" y="-28" font-family="Roboto Condensed, sans-serif" font-size="16.00" fill="#000000">callapp&#45;lib</text>
<!-- callapp&#45;lib@3.3.0 -->
<g id="node1" class="node">
<title>callapp&#45;lib@3.3.0</title>
<path fill="none" stroke="#000000" d="M78.7849,-19.3011C78.7849,-19.3011 6.3832,-19.3011 6.3832,-19.3011 3.1495,-19.3011 -.0842,-16.0674 -.0842,-12.8337 -.0842,-12.8337 -.0842,-6.3663 -.0842,-6.3663 -.0842,-3.1326 3.1495,.1011 6.3832,.1011 6.3832,.1011 78.7849,.1011 78.7849,.1011 82.0186,.1011 85.2523,-3.1326 85.2523,-6.3663 85.2523,-6.3663 85.2523,-12.8337 85.2523,-12.8337 85.2523,-16.0674 82.0186,-19.3011 78.7849,-19.3011"/>
<text text-anchor="middle" x="42.584" y="-6.3" font-family="Roboto Condensed, sans-serif" font-size="11.00" fill="#000000">callapp&#45;lib@3.3.0</text>
</g>
</g>
</svg>
